<svg width="20" height="26" viewBox="0 0 20 26" fill="none" xmlns="http://www.w3.org/2000/svg">
<path fill-rule="evenodd" clip-rule="evenodd" d="M20 10.0002C20 13.9581 17.7006 17.379 14.3649 18.9999H17.9999C18.276 18.9999 18.4999 19.2237 18.4999 19.4999V25.4999C18.4999 25.776 18.276 25.9999 17.9999 25.9999H1.99988C1.72374 25.9999 1.49988 25.776 1.49988 25.4999V19.4999C1.49988 19.2237 1.72374 18.9999 1.99988 18.9999H5.63512C2.29936 17.379 0 13.9581 0 10.0002C0 4.4774 4.47715 0.000244141 10 0.000244141C15.5228 0.000244141 20 4.4774 20 10.0002ZM14.4998 24.5004C15.6043 24.5004 16.4998 23.6049 16.4998 22.5004C16.4998 21.3958 15.6043 20.5004 14.4998 20.5004C13.3952 20.5004 12.4998 21.3958 12.4998 22.5004C12.4998 23.6049 13.3952 24.5004 14.4998 24.5004ZM7.49951 22.5004C7.49951 23.6049 6.60408 24.5004 5.49951 24.5004C4.39494 24.5004 3.49951 23.6049 3.49951 22.5004C3.49951 21.3958 4.39494 20.5004 5.49951 20.5004C6.60408 20.5004 7.49951 21.3958 7.49951 22.5004ZM4.5 13.5009C5.32843 13.5009 6 12.8293 6 12.0009C6 11.1725 5.32843 10.5009 4.5 10.5009C3.67157 10.5009 3 11.1725 3 12.0009C3 12.8293 3.67157 13.5009 4.5 13.5009ZM12 16.0009C12 17.1055 11.1046 18.0009 10 18.0009C8.89543 18.0009 8 17.1055 8 16.0009C8 14.8963 8.89543 14.0009 10 14.0009C11.1046 14.0009 12 14.8963 12 16.0009ZM15.5 13.5009C16.3284 13.5009 17 12.8293 17 12.0009C17 11.1725 16.3284 10.5009 15.5 10.5009C14.6716 10.5009 14 11.1725 14 12.0009C14 12.8293 14.6716 13.5009 15.5 13.5009ZM16 6.00089C16 7.10545 15.1046 8.00089 14 8.00089C12.8954 8.00089 12 7.10545 12 6.00089C12 4.89632 12.8954 4.00089 14 4.00089C15.1046 4.00089 16 4.89632 16 6.00089ZM6 8.00089C7.10457 8.00089 8 7.10545 8 6.00089C8 4.89632 7.10457 4.00089 6 4.00089C4.89543 4.00089 4 4.89632 4 6.00089C4 7.10545 4.89543 8.00089 6 8.00089Z" fill="#373435"/>
</svg>
