<svg width="20" height="26" viewBox="0 0 20 26" fill="none" xmlns="http://www.w3.org/2000/svg">
<path fill-rule="evenodd" clip-rule="evenodd" d="M20 8.49958C20 12.4578 17.7002 15.8789 14.364 17.4996H17.9999C18.276 17.4996 18.4999 17.7235 18.4999 17.9996V23.9996C18.4999 24.2758 18.276 24.4996 17.9999 24.4996H1.99988C1.72374 24.4996 1.49988 24.2758 1.49988 23.9996V17.9996C1.49988 17.7235 1.72374 17.4996 1.99988 17.4996H5.63598C2.29975 15.8789 0 12.4578 0 8.49958C0 5.84988 1.03055 3.44088 2.7127 1.65152C2.80472 1.55364 2.93386 1.5 3.0682 1.5H10L16.9318 1.5002C17.0661 1.5002 17.1953 1.55385 17.2873 1.65172C18.9694 3.44107 20 5.84988 20 8.49958ZM6.99976 7.00061C7.82818 7.00061 8.49976 6.32904 8.49976 5.50061C8.49976 4.67218 7.82818 4.00061 6.99976 4.00061C6.17133 4.00061 5.49976 4.67218 5.49976 5.50061C5.49976 6.32904 6.17133 7.00061 6.99976 7.00061ZM8.99963 13.0002C8.99963 14.1048 8.1042 15.0002 6.99963 15.0002C5.89506 15.0002 4.99963 14.1048 4.99963 13.0002C4.99963 11.8957 5.89506 11.0002 6.99963 11.0002C8.1042 11.0002 8.99963 11.8957 8.99963 13.0002ZM12.9998 7.00061C13.8282 7.00061 14.4998 6.32904 14.4998 5.50061C14.4998 4.67218 13.8282 4.00061 12.9998 4.00061C12.1713 4.00061 11.4998 4.67218 11.4998 5.50061C11.4998 6.32904 12.1713 7.00061 12.9998 7.00061ZM14.9996 13.0002C14.9996 14.1048 14.1042 15.0002 12.9996 15.0002C11.8951 15.0002 10.9996 14.1048 10.9996 13.0002C10.9996 11.8957 11.8951 11.0002 12.9996 11.0002C14.1042 11.0002 14.9996 11.8957 14.9996 13.0002ZM14.4998 23.0001C15.6043 23.0001 16.4998 22.1047 16.4998 21.0001C16.4998 19.8956 15.6043 19.0001 14.4998 19.0001C13.3952 19.0001 12.4998 19.8956 12.4998 21.0001C12.4998 22.1047 13.3952 23.0001 14.4998 23.0001ZM7.49951 21.0001C7.49951 22.1047 6.60408 23.0001 5.49951 23.0001C4.39494 23.0001 3.49951 22.1047 3.49951 21.0001C3.49951 19.8956 4.39494 19.0001 5.49951 19.0001C6.60408 19.0001 7.49951 19.8956 7.49951 21.0001ZM9.99963 11.0007C11.1042 11.0007 11.9996 10.1053 11.9996 9.00073C11.9996 7.89616 11.1042 7.00073 9.99963 7.00073C8.89506 7.00073 7.99963 7.89616 7.99963 9.00073C7.99963 10.1053 8.89506 11.0007 9.99963 11.0007ZM17.9999 9.00073C17.9999 10.1053 17.1044 11.0007 15.9999 11.0007C14.8953 11.0007 13.9999 10.1053 13.9999 9.00073C13.9999 7.89616 14.8953 7.00073 15.9999 7.00073C17.1044 7.00073 17.9999 7.89616 17.9999 9.00073ZM4.00012 11.0007C5.10469 11.0007 6.00012 10.1053 6.00012 9.00073C6.00012 7.89616 5.10469 7.00073 4.00012 7.00073C2.89555 7.00073 2.00012 7.89616 2.00012 9.00073C2.00012 10.1053 2.89555 11.0007 4.00012 11.0007Z" fill="#373435"/>
</svg>
