<svg width="20" height="26" viewBox="0 0 20 26" fill="none" xmlns="http://www.w3.org/2000/svg">
<path fill-rule="evenodd" clip-rule="evenodd" d="M20 13C20 18.5228 15.5228 23 10 23C4.47715 23 0 18.5228 0 13C0 10.9662 0.607169 9.07413 1.65013 7.49529L0.900438 6.73775C0.717242 6.55263 0.717242 6.25251 0.900438 6.06739L3.10891 3.83582C3.2921 3.6507 3.58912 3.6507 3.77232 3.83582L4.54555 4.61715C6.11422 3.59438 7.9877 3 10 3C12.0123 3 13.8858 3.59438 15.4544 4.61715L16.2277 3.83582C16.4109 3.6507 16.7079 3.6507 16.8911 3.83582L19.0996 6.06739C19.2828 6.25251 19.2828 6.55263 19.0996 6.73775L18.3499 7.49529C19.3928 9.07413 20 10.9662 20 13ZM11.9357 9.08218C12.2884 8.65122 12.5 8.10032 12.5 7.5C12.5 6.90031 12.2888 6.34993 11.9368 5.91916L10.3548 7.50122L11.9357 9.08218ZM11.5822 9.43574L10.0012 7.85478L8.41916 9.43684C8.84993 9.78885 9.40031 10 10 10C10.6003 10 11.1512 9.78841 11.5822 9.43574ZM8.06536 9.08353C7.71203 8.65236 7.5 8.10094 7.5 7.5C7.5 6.89968 7.71159 6.34878 8.06426 5.91782L9.64767 7.50122L8.06536 9.08353ZM8.41782 5.56426L10.0012 7.14767L11.5835 5.56536C11.1524 5.21203 10.6009 5 10 5C9.39968 5 8.84878 5.21159 8.41782 5.56426ZM12.5 18.5006C12.5 19.101 12.2884 19.6519 11.9357 20.0828L10.3548 18.5019L11.9368 16.9198C12.2888 17.3506 12.5 17.9009 12.5 18.5006ZM10.0012 18.8554L11.5822 20.4364C11.1512 20.789 10.6003 21.0006 10 21.0006C9.40031 21.0006 8.84993 20.7895 8.41916 20.4375L10.0012 18.8554ZM7.5 18.5006C7.5 19.1016 7.71203 19.653 8.06536 20.0842L9.64767 18.5019L8.06426 16.9185C7.71159 17.3494 7.5 17.9003 7.5 18.5006ZM10.0012 18.1483L8.41782 16.5649C8.84878 16.2122 9.39968 16.0006 10 16.0006C10.6009 16.0006 11.1524 16.2127 11.5835 16.566L10.0012 18.1483ZM18 13C18 14.3807 16.8807 15.5 15.5 15.5C14.1193 15.5 13 14.3807 13 13C13 11.6193 14.1193 10.5 15.5 10.5C16.8807 10.5 18 11.6193 18 13ZM4.5 15.5C5.88071 15.5 7 14.3807 7 13C7 11.6193 5.88071 10.5 4.5 10.5C3.11929 10.5 2 11.6193 2 13C2 14.3807 3.11929 15.5 4.5 15.5Z" fill="#373435"/>
</svg>
