<svg width="20" height="26" viewBox="0 0 20 26" fill="none" xmlns="http://www.w3.org/2000/svg">
<path fill-rule="evenodd" clip-rule="evenodd" d="M10 21.4996C15.5228 21.4996 20 17.0224 20 11.4996C20 8.84988 18.9694 6.44107 17.2873 4.65172C17.1953 4.55385 17.0661 4.5002 16.9318 4.5002L10 4.5H3.0682C2.93386 4.5 2.80472 4.55364 2.7127 4.65152C1.03055 6.44088 0 8.84988 0 11.4996C0 17.0224 4.47715 21.4996 10 21.4996ZM4 14.5C5.65685 14.5 7 13.1569 7 11.5C7 9.84315 5.65685 8.5 4 8.5C2.34315 8.5 1 9.84315 1 11.5C1 13.1569 2.34315 14.5 4 14.5ZM19 11.5C19 13.1569 17.6569 14.5 16 14.5C14.3431 14.5 13 13.1569 13 11.5C13 9.84315 14.3431 8.5 16 8.5C17.6569 8.5 19 9.84315 19 11.5ZM10 19C10.8284 19 11.5 18.3284 11.5 17.5C11.5 16.6716 10.8284 16 10 16C9.17157 16 8.5 16.6716 8.5 17.5C8.5 18.3284 9.17157 19 10 19ZM7 17.5C7 18.0523 6.55228 18.5 6 18.5C5.44772 18.5 5 18.0523 5 17.5C5 16.9477 5.44772 16.5 6 16.5C6.55228 16.5 7 16.9477 7 17.5ZM14 18.5C14.5523 18.5 15 18.0523 15 17.5C15 16.9477 14.5523 16.5 14 16.5C13.4477 16.5 13 16.9477 13 17.5C13 18.0523 13.4477 18.5 14 18.5ZM11 6.5C11 7.05228 10.5523 7.5 10 7.5C9.44771 7.5 9 7.05228 9 6.5C9 5.94772 9.44771 5.5 10 5.5C10.5523 5.5 11 5.94772 11 6.5ZM13 7.5C13.5523 7.5 14 7.05228 14 6.5C14 5.94772 13.5523 5.5 13 5.5C12.4477 5.5 12 5.94772 12 6.5C12 7.05228 12.4477 7.5 13 7.5ZM8 6.5C8 7.05228 7.55228 7.5 7 7.5C6.44772 7.5 6 7.05228 6 6.5C6 5.94772 6.44772 5.5 7 5.5C7.55228 5.5 8 5.94772 8 6.5ZM10 10.5C10.5523 10.5 11 10.0523 11 9.5C11 8.94772 10.5523 8.5 10 8.5C9.44771 8.5 9 8.94772 9 9.5C9 10.0523 9.44771 10.5 10 10.5Z" fill="#373435"/>
</svg>
