<svg width="20" height="26" viewBox="0 0 20 26" fill="none" xmlns="http://www.w3.org/2000/svg">
<path fill-rule="evenodd" clip-rule="evenodd" d="M10 21.4996C15.5228 21.4996 20 17.0224 20 11.4996C20 8.84988 18.9694 6.44107 17.2873 4.65172C17.1953 4.55385 17.0661 4.5002 16.9318 4.5002L10 4.5H3.0682C2.93386 4.5 2.80472 4.55364 2.7127 4.65152C1.03055 6.44088 0 8.84988 0 11.4996C0 17.0224 4.47715 21.4996 10 21.4996ZM7.49976 8.50061C7.49976 8.77675 7.2759 9.00061 6.99976 9.00061C6.72361 9.00061 6.49976 8.77675 6.49976 8.50061C6.49976 8.22447 6.72361 8.00061 6.99976 8.00061C7.2759 8.00061 7.49976 8.22447 7.49976 8.50061ZM8.49976 8.50061C8.49976 9.32904 7.82818 10.0006 6.99976 10.0006C6.17133 10.0006 5.49976 9.32904 5.49976 8.50061C5.49976 7.67218 6.17133 7.00061 6.99976 7.00061C7.82818 7.00061 8.49976 7.67218 8.49976 8.50061ZM6.99963 17.0002C7.55192 17.0002 7.99963 16.5525 7.99963 16.0002C7.99963 15.448 7.55192 15.0002 6.99963 15.0002C6.44735 15.0002 5.99963 15.448 5.99963 16.0002C5.99963 16.5525 6.44735 17.0002 6.99963 17.0002ZM6.99963 18.0002C8.1042 18.0002 8.99963 17.1048 8.99963 16.0002C8.99963 14.8957 8.1042 14.0002 6.99963 14.0002C5.89506 14.0002 4.99963 14.8957 4.99963 16.0002C4.99963 17.1048 5.89506 18.0002 6.99963 18.0002ZM13.4998 8.50061C13.4998 8.77675 13.2759 9.00061 12.9998 9.00061C12.7236 9.00061 12.4998 8.77675 12.4998 8.50061C12.4998 8.22447 12.7236 8.00061 12.9998 8.00061C13.2759 8.00061 13.4998 8.22447 13.4998 8.50061ZM14.4998 8.50061C14.4998 9.32904 13.8282 10.0006 12.9998 10.0006C12.1713 10.0006 11.4998 9.32904 11.4998 8.50061C11.4998 7.67218 12.1713 7.00061 12.9998 7.00061C13.8282 7.00061 14.4998 7.67218 14.4998 8.50061ZM12.9996 17.0002C13.5519 17.0002 13.9996 16.5525 13.9996 16.0002C13.9996 15.448 13.5519 15.0002 12.9996 15.0002C12.4473 15.0002 11.9996 15.448 11.9996 16.0002C11.9996 16.5525 12.4473 17.0002 12.9996 17.0002ZM12.9996 18.0002C14.1042 18.0002 14.9996 17.1048 14.9996 16.0002C14.9996 14.8957 14.1042 14.0002 12.9996 14.0002C11.8951 14.0002 10.9996 14.8957 10.9996 16.0002C10.9996 17.1048 11.8951 18.0002 12.9996 18.0002ZM10.9996 12.0007C10.9996 12.553 10.5519 13.0007 9.99963 13.0007C9.44735 13.0007 8.99963 12.553 8.99963 12.0007C8.99963 11.4484 9.44735 11.0007 9.99963 11.0007C10.5519 11.0007 10.9996 11.4484 10.9996 12.0007ZM11.9996 12.0007C11.9996 13.1053 11.1042 14.0007 9.99963 14.0007C8.89506 14.0007 7.99963 13.1053 7.99963 12.0007C7.99963 10.8962 8.89506 10.0007 9.99963 10.0007C11.1042 10.0007 11.9996 10.8962 11.9996 12.0007ZM15.9999 13.0007C16.5522 13.0007 16.9999 12.553 16.9999 12.0007C16.9999 11.4484 16.5522 11.0007 15.9999 11.0007C15.4476 11.0007 14.9999 11.4484 14.9999 12.0007C14.9999 12.553 15.4476 13.0007 15.9999 13.0007ZM15.9999 14.0007C17.1044 14.0007 17.9999 13.1053 17.9999 12.0007C17.9999 10.8962 17.1044 10.0007 15.9999 10.0007C14.8953 10.0007 13.9999 10.8962 13.9999 12.0007C13.9999 13.1053 14.8953 14.0007 15.9999 14.0007ZM5.00012 12.0007C5.00012 12.553 4.55241 13.0007 4.00012 13.0007C3.44784 13.0007 3.00012 12.553 3.00012 12.0007C3.00012 11.4484 3.44784 11.0007 4.00012 11.0007C4.55241 11.0007 5.00012 11.4484 5.00012 12.0007ZM6.00012 12.0007C6.00012 13.1053 5.10469 14.0007 4.00012 14.0007C2.89555 14.0007 2.00012 13.1053 2.00012 12.0007C2.00012 10.8962 2.89555 10.0007 4.00012 10.0007C5.10469 10.0007 6.00012 10.8962 6.00012 12.0007Z" fill="#373435"/>
</svg>
