<svg width="20" height="26" viewBox="0 0 20 26" fill="none" xmlns="http://www.w3.org/2000/svg">
<path fill-rule="evenodd" clip-rule="evenodd" d="M10 21.4996C15.5228 21.4996 20 17.0224 20 11.4996V10.5006C20 7.18697 17.3138 4.50015 14.0001 4.50008L10 4.5H5.99997C2.6863 4.5 1.85829e-05 7.18678 2.62218e-06 10.5005L0 11.4996C0 17.0224 4.47715 21.4996 10 21.4996ZM10 18C10.8284 18 11.5 17.3284 11.5 16.5C11.5 15.6716 10.8284 15 10 15C9.17157 15 8.5 15.6716 8.5 16.5C8.5 17.3284 9.17157 18 10 18ZM7 17C7 17.5523 6.55228 18 6 18C5.44772 18 5 17.5523 5 17C5 16.4477 5.44772 16 6 16C6.55228 16 7 16.4477 7 17ZM14 18C14.5523 18 15 17.5523 15 17C15 16.4477 14.5523 16 14 16C13.4477 16 13 16.4477 13 17C13 17.5523 13.4477 18 14 18ZM8 8.5C8 10.1569 6.65685 11.5 5 11.5C3.34315 11.5 2 10.1569 2 8.5C2 6.84315 3.34315 5.5 5 5.5C6.65685 5.5 8 6.84315 8 8.5ZM15 11.5C16.6569 11.5 18 10.1569 18 8.5C18 6.84315 16.6569 5.5 15 5.5C13.3431 5.5 12 6.84315 12 8.5C12 10.1569 13.3431 11.5 15 11.5Z" fill="#373435"/>
</svg>
