<svg width="20" height="26" viewBox="0 0 20 26" fill="none" xmlns="http://www.w3.org/2000/svg">
<path fill-rule="evenodd" clip-rule="evenodd" d="M10 23.4993C15.5228 23.4993 20 19.0221 20 13.4993C20 7.97642 15.5228 3.49927 10 3.49927C4.47715 3.49927 0 7.97642 0 13.4993C0 19.0221 4.47715 23.4993 10 23.4993ZM4.5 16.9999C5.32843 16.9999 6 16.3283 6 15.4999C6 14.6715 5.32843 13.9999 4.5 13.9999C3.67157 13.9999 3 14.6715 3 15.4999C3 16.3283 3.67157 16.9999 4.5 16.9999ZM12 19.4999C12 20.6045 11.1046 21.4999 10 21.4999C8.89543 21.4999 8 20.6045 8 19.4999C8 18.3953 8.89543 17.4999 10 17.4999C11.1046 17.4999 12 18.3953 12 19.4999ZM15.5 16.9999C16.3284 16.9999 17 16.3283 17 15.4999C17 14.6715 16.3284 13.9999 15.5 13.9999C14.6716 13.9999 14 14.6715 14 15.4999C14 16.3283 14.6716 16.9999 15.5 16.9999ZM16 9.49991C16 10.6045 15.1046 11.4999 14 11.4999C12.8954 11.4999 12 10.6045 12 9.49991C12 8.39534 12.8954 7.49991 14 7.49991C15.1046 7.49991 16 8.39534 16 9.49991ZM6 11.4999C7.10457 11.4999 8 10.6045 8 9.49991C8 8.39534 7.10457 7.49991 6 7.49991C4.89543 7.49991 4 8.39534 4 9.49991C4 10.6045 4.89543 11.4999 6 11.4999Z" fill="#373435"/>
</svg>
