<svg width="20" height="26" viewBox="0 0 20 26" fill="none" xmlns="http://www.w3.org/2000/svg">
<path fill-rule="evenodd" clip-rule="evenodd" d="M10 21.4996C15.5228 21.4996 20 17.0224 20 11.4996C20 8.84988 18.9694 6.44107 17.2873 4.65172C17.1953 4.55385 17.0661 4.5002 16.9318 4.5002L10 4.5H3.0682C2.93386 4.5 2.80472 4.55364 2.7127 4.65152C1.03055 6.44088 0 8.84988 0 11.4996C0 17.0224 4.47715 21.4996 10 21.4996ZM6.99976 10.0006C7.82818 10.0006 8.49976 9.32904 8.49976 8.50061C8.49976 7.67218 7.82818 7.00061 6.99976 7.00061C6.17133 7.00061 5.49976 7.67218 5.49976 8.50061C5.49976 9.32904 6.17133 10.0006 6.99976 10.0006ZM8.99963 16.0002C8.99963 17.1048 8.1042 18.0002 6.99963 18.0002C5.89506 18.0002 4.99963 17.1048 4.99963 16.0002C4.99963 14.8957 5.89506 14.0002 6.99963 14.0002C8.1042 14.0002 8.99963 14.8957 8.99963 16.0002ZM12.9998 10.0006C13.8282 10.0006 14.4998 9.32904 14.4998 8.50061C14.4998 7.67218 13.8282 7.00061 12.9998 7.00061C12.1713 7.00061 11.4998 7.67218 11.4998 8.50061C11.4998 9.32904 12.1713 10.0006 12.9998 10.0006ZM14.9996 16.0002C14.9996 17.1048 14.1042 18.0002 12.9996 18.0002C11.8951 18.0002 10.9996 17.1048 10.9996 16.0002C10.9996 14.8957 11.8951 14.0002 12.9996 14.0002C14.1042 14.0002 14.9996 14.8957 14.9996 16.0002ZM9.99963 14.0007C11.1042 14.0007 11.9996 13.1053 11.9996 12.0007C11.9996 10.8962 11.1042 10.0007 9.99963 10.0007C8.89506 10.0007 7.99963 10.8962 7.99963 12.0007C7.99963 13.1053 8.89506 14.0007 9.99963 14.0007ZM17.9999 12.0007C17.9999 13.1053 17.1044 14.0007 15.9999 14.0007C14.8953 14.0007 13.9999 13.1053 13.9999 12.0007C13.9999 10.8962 14.8953 10.0007 15.9999 10.0007C17.1044 10.0007 17.9999 10.8962 17.9999 12.0007ZM4.00012 14.0007C5.10469 14.0007 6.00012 13.1053 6.00012 12.0007C6.00012 10.8962 5.10469 10.0007 4.00012 10.0007C2.89555 10.0007 2.00012 10.8962 2.00012 12.0007C2.00012 13.1053 2.89555 14.0007 4.00012 14.0007Z" fill="#373435"/>
</svg>
