<svg
	width="64"
	height="64"
	viewBox="0 0 64 64"
	fill="none"
	xmlns="http://www.w3.org/2000/svg"
>
	<path
		fill-rule="evenodd"
		clip-rule="evenodd"
		d="M26.6663 5.33345H23.9997C16.4572 5.33345 12.686 5.33345 10.3428 7.6766C7.99967 10.0197 7.99967 13.791 7.99967 21.3334V56.6668H5.33301C4.22844 56.6668 3.33301 57.5622 3.33301 58.6668C3.33301 59.7713 4.22844 60.6668 5.33301 60.6668H45.9997C47.1042 60.6668 47.9997 59.7713 47.9997 58.6668C47.9997 57.5622 47.1042 56.6668 45.9997 56.6668H42.6663V47.3335H46.8568C47.8562 47.3335 48.6663 48.1437 48.6663 49.143V49.3335C48.6663 52.6472 51.3526 55.3335 54.6663 55.3335C57.9801 55.3335 60.6663 52.6472 60.6663 49.3335V20.2715C60.6664 19.8537 60.6664 19.5655 60.6506 19.2844C60.5022 16.6418 59.3122 14.1658 57.3414 12.3991C57.1317 12.2112 56.9066 12.0311 56.5804 11.7702L53.2491 9.10512C52.3865 8.4151 51.128 8.55494 50.4379 9.41747C49.7479 10.28 49.8878 11.5386 50.7503 12.2286L54.0385 14.8592C54.4238 15.1674 54.5558 15.2739 54.6714 15.3775C55.8538 16.4376 56.5678 17.9232 56.6569 19.5087C56.6656 19.6637 56.6663 19.8333 56.6663 20.3267V21.3334H54.6663C52.4572 21.3334 50.6663 23.1243 50.6663 25.3334V31.7837C50.6663 33.5055 51.7681 35.034 53.4014 35.5785L56.6663 36.6668V49.3335C56.6663 50.4381 55.7709 51.3335 54.6663 51.3335C53.5618 51.3335 52.6663 50.4381 52.6663 49.3335V49.143C52.6663 45.9345 50.0653 43.3335 46.8568 43.3335H42.6663V21.3334C42.6663 13.791 42.6663 10.0197 40.3232 7.6766C37.9801 5.33345 34.2088 5.33345 26.6663 5.33345ZM26.362 24.9518C27.3092 25.5201 27.6163 26.7486 27.048 27.6958L24.8654 31.3334H29.333C30.0536 31.3334 30.7184 31.721 31.0734 32.3481C31.4284 32.9751 31.4187 33.7446 31.048 34.3624L27.048 41.0291C26.4797 41.9763 25.2512 42.2834 24.304 41.7151C23.3569 41.1468 23.0497 39.9183 23.618 38.9711L25.8006 35.3334H21.333C20.6125 35.3334 19.9476 34.9459 19.5926 34.3188C19.2376 33.6918 19.2473 32.9223 19.618 32.3045L23.618 25.6378C24.1863 24.6906 25.4148 24.3835 26.362 24.9518Z"
		fill="#8E949F"
	/>
</svg>
