<svg width="24" height="24" viewBox="0 0 24 24" fill="none" xmlns="http://www.w3.org/2000/svg">
<path d="M12 2.625C6.61425 2.625 2.25 6.99 2.25 12.375C2.25 17.76 6.61425 22.125 12 22.125C17.3842 22.125 21.75 17.76 21.75 12.375C21.75 6.99 17.385 2.625 12 2.625ZM11.9213 20.2703C7.572 20.2703 4.04625 16.7445 4.04625 12.3953C4.04625 8.046 7.572 4.52025 11.9213 4.52025C16.2698 4.52025 19.7962 8.046 19.7962 12.3953C19.7962 16.7445 16.2698 20.2703 11.9213 20.2703ZM14.1975 12.8483H11.9625V9.07425C11.9625 8.66475 11.6302 8.33175 11.2208 8.33175C10.8113 8.33175 10.4782 8.664 10.4782 9.07425V13.59C10.4782 14.0003 10.8105 14.3317 11.2208 14.3317H14.1975C14.6077 14.3317 14.94 14.0003 14.94 13.59C14.94 13.1805 14.6077 12.8483 14.1975 12.8483Z" fill="#373435"/>
</svg>
