<svg width="64" height="64" viewBox="0 0 64 64" fill="none" xmlns="http://www.w3.org/2000/svg">
<path d="M4.66736 26.6677V37.3343C4.66736 44.8768 4.66736 48.6481 7.0105 50.9912C7.59007 51.5708 8.25701 52.007 9.04677 52.3353C9.02886 52.2167 9.01193 52.0978 8.99592 51.9787C8.66698 49.5321 8.66715 46.4768 8.66735 42.9309L8.66736 21.3342L8.66735 21.0709V21.0709C8.66715 17.5249 8.66698 14.4697 8.99592 12.023C9.01192 11.904 9.02883 11.7853 9.04673 11.6667C8.25698 11.9951 7.59006 12.4313 7.0105 13.0108C4.66736 15.354 4.66736 19.1252 4.66736 26.6677Z" fill="#8E949F"/>
<path d="M58.0007 26.6677V37.3343C58.0007 44.8768 58.0007 48.6481 55.6575 50.9912C55.078 51.5708 54.411 52.007 53.6213 52.3353C53.6392 52.2167 53.6561 52.0978 53.6721 51.9787C54.0011 49.5321 54.0009 46.4768 54.0007 42.9308V21.0709C54.0009 17.525 54.0011 14.4697 53.6721 12.023C53.6561 11.904 53.6392 11.7853 53.6213 11.6667C54.4111 11.9951 55.078 12.4313 55.6575 13.0108C58.0007 15.354 58.0007 19.1252 58.0007 26.6677Z" fill="#8E949F"/>
<path fill-rule="evenodd" clip-rule="evenodd" d="M15.0105 7.67664C12.6674 10.0198 12.6674 13.791 12.6674 21.3335V42.6668C12.6674 50.2093 12.6674 53.9805 15.0105 56.3237C17.3536 58.6668 21.1249 58.6668 28.6674 58.6668H34.0007C41.5432 58.6668 45.3144 58.6668 47.6575 56.3237C50.0007 53.9805 50.0007 50.2093 50.0007 42.6668V21.3335C50.0007 13.791 50.0007 10.0198 47.6575 7.67664C45.3144 5.3335 41.5432 5.3335 34.0007 5.3335H28.6674C21.1249 5.3335 17.3536 5.3335 15.0105 7.67664ZM21.334 45.3335C21.334 44.2289 22.2295 43.3335 23.334 43.3335H31.334C32.4386 43.3335 33.334 44.2289 33.334 45.3335C33.334 46.4381 32.4386 47.3335 31.334 47.3335H23.334C22.2295 47.3335 21.334 46.4381 21.334 45.3335ZM23.334 32.6668C22.2295 32.6668 21.334 33.5623 21.334 34.6668C21.334 35.7714 22.2295 36.6668 23.334 36.6668H39.334C40.4386 36.6668 41.334 35.7714 41.334 34.6668C41.334 33.5623 40.4386 32.6668 39.334 32.6668H23.334ZM21.334 24.0002C21.334 22.8956 22.2295 22.0002 23.334 22.0002H39.334C40.4386 22.0002 41.334 22.8956 41.334 24.0002C41.334 25.1047 40.4386 26.0002 39.334 26.0002H23.334C22.2295 26.0002 21.334 25.1047 21.334 24.0002Z" fill="#8E949F"/>
</svg>
