<svg width="14" height="13" viewBox="0 0 14 13" fill="none" xmlns="http://www.w3.org/2000/svg">
<path fill-rule="evenodd" clip-rule="evenodd" d="M5.83335 0.166672H5.25002C3.6001 0.166672 2.77515 0.166672 2.26258 0.679235C1.75002 1.1918 1.75002 2.01676 1.75002 3.66667V11.3958H1.16669C0.925062 11.3958 0.729187 11.5917 0.729187 11.8333C0.729187 12.075 0.925062 12.2708 1.16669 12.2708H10.0625C10.3041 12.2708 10.5 12.075 10.5 11.8333C10.5 11.5917 10.3041 11.3958 10.0625 11.3958H9.33335V9.35419H10.25C10.4686 9.35419 10.6459 9.53141 10.6459 9.75002V9.79169C10.6459 10.5166 11.2335 11.1042 11.9584 11.1042C12.6832 11.1042 13.2709 10.5166 13.2709 9.79169V3.43437C13.2709 3.34298 13.2709 3.27993 13.2674 3.21844C13.2349 2.64037 12.9746 2.09875 12.5435 1.71228C12.4977 1.67118 12.4484 1.63179 12.3771 1.57471L11.6483 0.991724C11.4596 0.840783 11.1843 0.871373 11.0334 1.06005C10.8824 1.24873 10.913 1.52404 11.1017 1.67498L11.821 2.25042C11.9053 2.31785 11.9342 2.34115 11.9594 2.36382C12.2181 2.5957 12.3743 2.92067 12.3938 3.26751C12.3957 3.30141 12.3959 3.33851 12.3959 3.44645V3.66667H11.9584C11.4751 3.66667 11.0834 4.05842 11.0834 4.54167V5.95267C11.0834 6.3293 11.3244 6.66367 11.6817 6.78277L12.3959 7.02084V9.79169C12.3959 10.0333 12.2 10.2292 11.9584 10.2292C11.7167 10.2292 11.5209 10.0333 11.5209 9.79169V9.75002C11.5209 9.04816 10.9519 8.47919 10.25 8.47919H9.33335V3.66667C9.33335 2.01676 9.33335 1.1918 8.82079 0.679235C8.30823 0.166672 7.48327 0.166672 5.83335 0.166672ZM5.76678 4.45819C5.97397 4.5825 6.04115 4.85124 5.91684 5.05843L5.4394 5.85417H6.41669C6.57431 5.85417 6.71974 5.93896 6.7974 6.07612C6.87506 6.21328 6.87293 6.38161 6.79184 6.51676L5.91684 7.9751C5.79253 8.18229 5.52379 8.24947 5.3166 8.12516C5.1094 8.00084 5.04222 7.7321 5.16653 7.52491L5.64398 6.72917H4.66669C4.50907 6.72917 4.36363 6.64439 4.28597 6.50723C4.20832 6.37007 4.21044 6.20174 4.29153 6.06658L5.16653 4.60825C5.29085 4.40105 5.55959 4.33387 5.76678 4.45819Z" fill="white"/>
</svg>