<svg width="24" height="24" viewBox="0 0 24 24" fill="none" xmlns="http://www.w3.org/2000/svg">
<g clip-path="url(#clip0_1_383)">
<path d="M17.1268 0.102663C17.2736 0.18777 17.3872 0.320148 17.4491 0.478169C17.5109 0.63619 17.5173 0.810514 17.4673 0.972663L14.7658 9.75066H19.7503C19.8968 9.7506 20.0401 9.79344 20.1625 9.87389C20.2849 9.95434 20.3811 10.0689 20.4392 10.2034C20.4972 10.3378 20.5146 10.4864 20.4893 10.6306C20.4639 10.7749 20.3968 10.9086 20.2963 11.0152L8.2963 23.7652C8.18019 23.8886 8.02568 23.9691 7.85796 23.9935C7.69024 24.018 7.51919 23.9848 7.3727 23.8996C7.22622 23.8143 7.11292 23.682 7.05129 23.5241C6.98965 23.3662 6.98331 23.1921 7.0333 23.0302L9.7348 14.2507H4.7503C4.60382 14.2507 4.46052 14.2079 4.33811 14.1274C4.21569 14.047 4.11951 13.9325 4.06145 13.798C4.00338 13.6635 3.98596 13.5149 4.01135 13.3707C4.03674 13.2264 4.10381 13.0927 4.2043 12.9862L16.2043 0.236163C16.3203 0.112861 16.4745 0.0324155 16.642 0.00790543C16.8095 -0.0166046 16.9804 0.0162624 17.1268 0.101163V0.102663Z" fill="#05A6BE"/>
</g>
<defs>
<clipPath id="clip0_1_383">
<rect width="24" height="24" fill="white"/>
</clipPath>
</defs>
</svg>
