<svg width="24" height="24" viewBox="0 0 24 24" fill="none" xmlns="http://www.w3.org/2000/svg">
<g clip-path="url(#clip0_19_3140)">
<path d="M8.40839 11.5908C7.49999 10.5648 6.28879 10 4.99719 10C3.70559 10 2.49439 10.5648 1.58639 11.5908C-0.258411 13.6752 -0.258411 17.066 1.58639 19.1504L4.99719 23.0036L8.40799 19.1504C10.2532 17.066 10.2532 13.6752 8.40839 11.5908ZM7.80919 18.62L4.99759 21.7964L2.18559 18.62C0.599189 16.8284 0.599189 13.9128 2.18559 12.1212C2.93959 11.2692 3.93839 10.8 4.99719 10.8C6.05599 10.8 7.05519 11.2692 7.80879 12.1212C9.39519 13.9128 9.39519 16.828 7.80919 18.62Z" fill="#373435"/>
<path d="M19.4988 9.8028L22.0844 6.8884C23.4756 5.3204 23.4756 2.77 22.0844 1.202C21.3964 0.4268 20.478 0 19.4984 0C18.5192 0 17.6008 0.4268 16.9128 1.202C15.5216 2.77 15.5216 5.3204 16.9128 6.8884L19.4988 9.8028ZM17.5112 1.7332C18.0452 1.1312 18.7508 0.8 19.4984 0.8C20.2464 0.8 20.952 1.1312 21.486 1.7332C22.6172 3.008 22.6172 5.0824 21.486 6.3572L19.4988 8.5976L17.5112 6.3572C16.38 5.0824 16.38 3.008 17.5112 1.7332Z" fill="#373435"/>
<path d="M21.0416 21.8068C20.826 21.7584 20.612 21.8936 20.5636 22.1092C20.5176 22.3132 20.4284 22.5008 20.2984 22.666C20.162 22.8396 20.1916 23.0912 20.3656 23.2276C20.4392 23.2852 20.526 23.3132 20.6124 23.3132C20.7312 23.3132 20.8484 23.2608 20.9272 23.1604C21.1288 22.9044 21.2728 22.602 21.344 22.2852C21.3924 22.0692 21.2572 21.8552 21.0416 21.8068Z" fill="#373435"/>
<path d="M12.798 12.4C12.6248 12.3996 12.4564 12.3688 12.2972 12.308C12.0924 12.23 11.86 12.3328 11.7808 12.5392C11.7024 12.7456 11.806 12.9768 12.012 13.0556C12.2624 13.1508 12.526 13.1996 12.7972 13.2H12.94C13.1612 13.2 13.34 13.0212 13.34 12.8C13.34 12.5788 13.1612 12.4 12.94 12.4H12.798Z" fill="#373435"/>
<path d="M11.8484 9.87039C11.9208 9.87039 11.9936 9.85079 12.0596 9.80999C12.2368 9.69959 12.4328 9.63199 12.6412 9.60879C12.8608 9.58439 13.0192 9.38679 12.9952 9.16719C12.9712 8.94759 12.7748 8.7908 12.5536 8.8132C12.2248 8.8496 11.916 8.95599 11.636 9.13079C11.4484 9.24759 11.3916 9.49439 11.5084 9.68199C11.5844 9.80359 11.7148 9.87039 11.8484 9.87039Z" fill="#373435"/>
<path d="M7.22557 23.2H6.42557C6.20437 23.2 6.02557 23.3788 6.02557 23.6C6.02557 23.8212 6.20437 24 6.42557 24H7.22557C7.44677 24 7.62557 23.8212 7.62557 23.6C7.62557 23.3788 7.44637 23.2 7.22557 23.2Z" fill="#373435"/>
<path d="M14.3972 16C14.3628 16 14.3288 16.0008 14.2948 16.0024C14.074 16.0112 13.9028 16.1976 13.9116 16.4184C13.92 16.6336 14.0976 16.802 14.3108 16.802C14.3164 16.802 14.322 16.802 14.3276 16.8016L15.1112 16.8C15.3324 16.8 15.5112 16.6212 15.5112 16.4C15.5112 16.1788 15.3324 16 15.1112 16H14.3972Z" fill="#373435"/>
<path d="M14.1972 9.59999H14.9972C15.2184 9.59999 15.3972 9.42119 15.3972 9.19999C15.3972 8.97879 15.2184 8.79999 14.9972 8.79999H14.1972C13.976 8.79999 13.7972 8.97879 13.7972 9.19999C13.7972 9.42119 13.976 9.59999 14.1972 9.59999Z" fill="#373435"/>
<path d="M19.1112 16C18.89 16 18.7112 16.1788 18.7112 16.4C18.7112 16.6212 18.89 16.8 19.1112 16.8H19.9112C20.1324 16.8 20.3112 16.6212 20.3112 16.4C20.3112 16.1788 20.1324 16 19.9112 16H19.1112Z" fill="#373435"/>
<path d="M20.5404 12.8C20.5404 12.5788 20.3616 12.4 20.1404 12.4H19.3404C19.1192 12.4 18.9404 12.5788 18.9404 12.8C18.9404 13.0212 19.1192 13.2 19.3404 13.2H20.1404C20.3612 13.2 20.5404 13.0212 20.5404 12.8Z" fill="#373435"/>
<path d="M16.7112 16.8H17.5112C17.7324 16.8 17.9112 16.6212 17.9112 16.4C17.9112 16.1788 17.7324 16 17.5112 16H16.7112C16.49 16 16.3112 16.1788 16.3112 16.4C16.3112 16.6212 16.4904 16.8 16.7112 16.8Z" fill="#373435"/>
<path d="M17.3972 9.59999C17.6184 9.59999 17.7972 9.42119 17.7972 9.19999C17.7972 8.97879 17.6184 8.79999 17.3972 8.79999H16.5972C16.376 8.79999 16.1972 8.97879 16.1972 9.19999C16.1972 9.42119 16.376 9.59999 16.5972 9.59999H17.3972Z" fill="#373435"/>
<path d="M14.5404 12.4C14.3192 12.4 14.1404 12.5788 14.1404 12.8C14.1404 13.0212 14.3192 13.2 14.5404 13.2H15.3404C15.5616 13.2 15.7404 13.0212 15.7404 12.8C15.7404 12.5788 15.5616 12.4 15.3404 12.4H14.5404Z" fill="#373435"/>
<path d="M18.1404 12.8C18.1404 12.5788 17.9616 12.4 17.7404 12.4H16.9404C16.7192 12.4 16.5404 12.5788 16.5404 12.8C16.5404 13.0212 16.7192 13.2 16.9404 13.2H17.7404C17.9612 13.2 18.1404 13.0212 18.1404 12.8Z" fill="#373435"/>
<path d="M23.7704 14.2528C23.7352 14.0344 23.5292 13.8852 23.312 13.9212C23.0936 13.956 22.9452 14.1616 22.9804 14.3796C22.9916 14.4508 22.998 14.5232 22.9972 14.6004C22.9972 14.7348 22.978 14.8676 22.9404 14.9956C22.8784 15.2076 22.9996 15.43 23.212 15.492C23.2496 15.5028 23.2872 15.508 23.3244 15.508C23.4976 15.508 23.6572 15.3952 23.7084 15.2204C23.7672 15.0192 23.7972 14.8108 23.7972 14.6032C23.798 14.488 23.7892 14.37 23.7704 14.2528Z" fill="#373435"/>
<path d="M16.8256 23.2H16.0256C15.8044 23.2 15.6256 23.3788 15.6256 23.6C15.6256 23.8212 15.8044 24 16.0256 24H16.8256C17.0468 24 17.2256 23.8212 17.2256 23.6C17.2256 23.3788 17.0464 23.2 16.8256 23.2Z" fill="#373435"/>
<path d="M14.4256 23.2H13.6256C13.4044 23.2 13.2256 23.3788 13.2256 23.6C13.2256 23.8212 13.4044 24 13.6256 24H14.4256C14.6468 24 14.8256 23.8212 14.8256 23.6C14.8256 23.3788 14.6464 23.2 14.4256 23.2Z" fill="#373435"/>
<path d="M18.826 20C18.826 19.7788 18.6472 19.6 18.426 19.6H17.626C17.4048 19.6 17.226 19.7788 17.226 20C17.226 20.2212 17.4048 20.4 17.626 20.4H18.426C18.6468 20.4 18.826 20.2212 18.826 20Z" fill="#373435"/>
<path d="M16.426 20C16.426 19.7788 16.2472 19.6 16.026 19.6H15.226C15.0048 19.6 14.826 19.7788 14.826 20C14.826 20.2212 15.0048 20.4 15.226 20.4H16.026C16.2468 20.4 16.426 20.2212 16.426 20Z" fill="#373435"/>
<path d="M19.1972 23.2H18.4252C18.204 23.2 18.0252 23.3788 18.0252 23.6C18.0252 23.8212 18.204 24 18.4252 24L19.2136 23.9996L19.2252 23.5996V23.9996C19.4464 23.9996 19.6112 23.8208 19.6112 23.5996C19.6112 23.3788 19.4184 23.2 19.1972 23.2Z" fill="#373435"/>
<path d="M20.6124 21.0876C20.6988 21.0876 20.7864 21.0596 20.8592 21.002C21.0332 20.8652 21.0628 20.6136 20.9264 20.4404C20.7252 20.1848 20.4656 19.9736 20.1748 19.8292C19.976 19.7304 19.7368 19.8116 19.6384 20.0092C19.54 20.2072 19.6208 20.4472 19.8184 20.5456C20.0036 20.6372 20.1692 20.772 20.2972 20.9352C20.3764 21.0352 20.4936 21.0876 20.6124 21.0876Z" fill="#373435"/>
<path d="M22.138 15.8916C21.9664 15.9636 21.7848 16 21.5972 16H21.5112C21.29 16 21.1112 16.1788 21.1112 16.4C21.1112 16.6212 21.29 16.8 21.5112 16.8H21.5972C21.8916 16.8 22.1776 16.7424 22.4472 16.6292C22.6512 16.5436 22.7468 16.3092 22.6612 16.1056C22.576 15.902 22.34 15.806 22.138 15.8916Z" fill="#373435"/>
<path d="M11.2116 11.942C11.4212 11.8728 11.5356 11.6468 11.4668 11.4368C11.4208 11.2964 11.3972 11.1496 11.3972 11.0016C11.3976 10.9412 11.4012 10.8808 11.4084 10.822C11.436 10.6028 11.2808 10.4024 11.0616 10.3752C10.8356 10.35 10.642 10.5036 10.6148 10.722C10.6036 10.8124 10.5976 10.9044 10.5972 10.9996C10.5972 11.2348 10.634 11.466 10.7064 11.6868C10.762 11.8552 10.9184 11.962 11.0864 11.962C11.128 11.962 11.1704 11.956 11.2116 11.942Z" fill="#373435"/>
<path d="M9.6256 23.2H8.8256C8.6044 23.2 8.4256 23.3788 8.4256 23.6C8.4256 23.8212 8.6044 24 8.8256 24H9.6256C9.8468 24 10.0256 23.8212 10.0256 23.6C10.0256 23.3788 9.8464 23.2 9.6256 23.2Z" fill="#373435"/>
<path d="M13.6488 20.2376C13.8008 20.2376 13.9456 20.1508 14.0128 20.004C14.1044 19.8028 14.0164 19.5656 13.8156 19.474C13.628 19.388 13.458 19.2588 13.3244 19.0996C13.182 18.9304 12.93 18.9084 12.7608 19.0508C12.5916 19.1928 12.5696 19.4452 12.712 19.6144C12.9216 19.8636 13.188 20.0668 13.4828 20.2012C13.5368 20.2256 13.5932 20.2376 13.6488 20.2376Z" fill="#373435"/>
<path d="M22.6984 12.6952C22.4128 12.5296 22.1008 12.4324 21.7716 12.4064C21.552 12.3904 21.3588 12.5532 21.3416 12.774C21.3244 12.9944 21.4888 13.1868 21.7092 13.204C21.918 13.2204 22.116 13.282 22.2972 13.3872C22.3604 13.424 22.4296 13.4412 22.4976 13.4412C22.6356 13.4412 22.77 13.3696 22.844 13.242C22.9548 13.0512 22.8896 12.8064 22.6984 12.6952Z" fill="#373435"/>
<path d="M12.0256 23.2H11.2256C11.0044 23.2 10.8256 23.3788 10.8256 23.6C10.8256 23.8212 11.0044 24 11.2256 24H12.0256C12.2468 24 12.4256 23.8212 12.4256 23.6C12.4256 23.3788 12.2464 23.2 12.0256 23.2Z" fill="#373435"/>
<path d="M13.022 17.9356C13.0616 17.73 13.1448 17.54 13.2696 17.3704C13.4004 17.1928 13.3624 16.9424 13.1844 16.8112C13.0064 16.6808 12.7564 16.7184 12.6252 16.8964C12.4296 17.1628 12.2984 17.4616 12.236 17.7852C12.1944 18.002 12.3364 18.2116 12.5536 18.2536C12.5788 18.2584 12.6044 18.2608 12.6292 18.2608C12.8172 18.26 12.9848 18.1268 13.022 17.9356Z" fill="#373435"/>
<path d="M19.5972 5.99998C20.81 5.99998 21.7972 5.01278 21.7972 3.79998C21.7972 2.58718 20.81 1.59998 19.5972 1.59998C18.3844 1.59998 17.3972 2.58718 17.3972 3.79998C17.3972 5.01278 18.3844 5.99998 19.5972 5.99998ZM19.5972 2.39998C20.3692 2.39998 20.9972 3.02798 20.9972 3.79998C20.9972 4.57198 20.3692 5.19998 19.5972 5.19998C18.8252 5.19998 18.1972 4.57198 18.1972 3.79998C18.1972 3.02798 18.8256 2.39998 19.5972 2.39998Z" fill="#373435"/>
<path d="M4.9972 12.4C3.6736 12.4 2.5972 13.4764 2.5972 14.8C2.5972 16.1236 3.6736 17.2 4.9972 17.2C6.3208 17.2 7.3972 16.1236 7.3972 14.8C7.3972 13.4764 6.3208 12.4 4.9972 12.4ZM4.9972 16.4C4.1148 16.4 3.3972 15.6824 3.3972 14.8C3.3972 13.9176 4.1148 13.2 4.9972 13.2C5.8796 13.2 6.5972 13.9176 6.5972 14.8C6.5972 15.6824 5.8796 16.4 4.9972 16.4Z" fill="#373435"/>
</g>
<defs>
<clipPath id="clip0_19_3140">
<rect width="24" height="24" fill="white"/>
</clipPath>
</defs>
</svg>