<svg width="20" height="15" viewBox="0 0 20 15" fill="none" xmlns="http://www.w3.org/2000/svg">
<path d="M17.2389 0.020752C18.7014 0.020752 19.8973 1.16246 19.9839 2.60323L19.9889 2.77075V11.2758C19.9889 12.7384 18.8472 13.9342 17.4064 14.0208L17.2389 14.0258H2.76105C1.29852 14.0258 0.102643 12.8841 0.0160663 11.4434L0.0110474 11.2758V2.77075C0.0110474 1.30822 1.15275 0.112348 2.59352 0.0257707L2.76105 0.020752H17.2389ZM18.488 5.99475H1.51005L1.51105 11.2758C1.51105 11.923 2.00292 12.4554 2.63324 12.5194L2.76105 12.5258H17.2389C17.8861 12.5258 18.4184 12.034 18.4824 11.4036L18.4889 11.2758L18.488 5.99475ZM16.2529 9.50004C16.6671 9.50004 17.0029 9.83583 17.0029 10.25C17.0029 10.6297 16.7207 10.9435 16.3547 10.9932L16.2529 11H13.7529C13.3387 11 13.0029 10.6643 13.0029 10.25C13.0029 9.87035 13.2851 9.55655 13.6511 9.50689L13.7529 9.50004H16.2529ZM17.2389 1.52075H2.76105C2.11384 1.52075 1.58151 2.01263 1.5175 2.64295L1.51105 2.77075L1.51005 4.49475H18.488L18.4889 2.77075C18.4889 2.12354 17.997 1.59122 17.3667 1.52721L17.2389 1.52075Z" fill="#373435"/>
</svg>