<svg width="24" height="24" viewBox="0 0 24 24" fill="none" xmlns="http://www.w3.org/2000/svg">
<path d="M19.2389 5.02051C20.7014 5.02051 21.8973 6.16221 21.9839 7.60299L21.9889 7.77051V16.2756C21.9889 17.7381 20.8472 18.934 19.4064 19.0206L19.2389 19.0256H4.76105C3.29852 19.0256 2.10264 17.8839 2.01607 16.4431L2.01105 16.2756V7.77051C2.01105 6.30798 3.15275 5.1121 4.59352 5.02553L4.76105 5.02051H19.2389ZM20.488 10.9945H3.51005L3.51105 16.2756C3.51105 16.9228 4.00292 17.4551 4.63324 17.5191L4.76105 17.5256H19.2389C19.8861 17.5256 20.4184 17.0337 20.4824 16.4034L20.4889 16.2756L20.488 10.9945ZM18.2529 14.4998C18.6671 14.4998 19.0029 14.8356 19.0029 15.2498C19.0029 15.6295 18.7207 15.9433 18.3547 15.993L18.2529 15.9998H15.7529C15.3387 15.9998 15.0029 15.664 15.0029 15.2498C15.0029 14.8701 15.2851 14.5563 15.6511 14.5066L15.7529 14.4998H18.2529ZM19.2389 6.52051H4.76105C4.11384 6.52051 3.58151 7.01238 3.5175 7.6427L3.51105 7.77051L3.51005 9.49451H20.488L20.4889 7.77051C20.4889 7.1233 19.997 6.59097 19.3667 6.52696L19.2389 6.52051Z" fill="#373435"/>
</svg>