<svg width="25" height="24" viewBox="0 0 25 24" fill="none" xmlns="http://www.w3.org/2000/svg">
<path d="M4.17981 11.3333H3.42981H4.17981ZM4.17981 13L3.65157 13.5324C3.94398 13.8225 4.41565 13.8225 4.70805 13.5324L4.17981 13ZM6.38787 11.8657C6.68191 11.574 6.68377 11.0991 6.39203 10.8051C6.10029 10.511 5.62542 10.5092 5.33138 10.8009L6.38787 11.8657ZM3.02824 10.8009C2.7342 10.5092 2.25933 10.511 1.96759 10.8051C1.67585 11.0991 1.67772 11.574 1.97176 11.8657L3.02824 10.8009ZM19.1156 7.39279C19.3325 7.74565 19.7944 7.85585 20.1473 7.63892C20.5001 7.42199 20.6103 6.96007 20.3934 6.60721L19.1156 7.39279ZM12.5789 2.25C7.53155 2.25 3.42981 6.3112 3.42981 11.3333H4.92981C4.92981 7.15072 8.34884 3.75 12.5789 3.75V2.25ZM3.42981 11.3333L3.42981 13H4.92981L4.92981 11.3333H3.42981ZM4.70805 13.5324L6.38787 11.8657L5.33138 10.8009L3.65157 12.4676L4.70805 13.5324ZM4.70805 12.4676L3.02824 10.8009L1.97176 11.8657L3.65157 13.5324L4.70805 12.4676ZM20.3934 6.60721C18.787 3.99427 15.8873 2.25 12.5789 2.25V3.75C15.3484 3.75 17.7727 5.20845 19.1156 7.39279L20.3934 6.60721Z" fill="#C8CED8"/>
<path d="M20.8139 11L21.3411 10.4666C21.049 10.1778 20.5788 10.1778 20.2867 10.4666L20.8139 11ZM18.6004 12.1333C18.3058 12.4244 18.3031 12.8993 18.5942 13.1939C18.8854 13.4885 19.3603 13.4913 19.6549 13.2001L18.6004 12.1333ZM21.9729 13.2001C22.2675 13.4913 22.7424 13.4885 23.0335 13.1939C23.3247 12.8993 23.322 12.4244 23.0274 12.1332L21.9729 13.2001ZM5.81794 16.6061C5.6004 16.2536 5.1383 16.1442 4.78581 16.3618C4.43331 16.5793 4.32391 17.0414 4.54144 17.3939L5.81794 16.6061ZM12.3827 21.75C17.4451 21.75 21.5639 17.6915 21.5639 12.6667H20.0639C20.0639 16.8466 16.6332 20.25 12.3827 20.25V21.75ZM21.5639 12.6667V11H20.0639V12.6667H21.5639ZM20.2867 10.4666L18.6004 12.1333L19.6549 13.2001L21.3411 11.5334L20.2867 10.4666ZM20.2867 11.5334L21.9729 13.2001L23.0274 12.1332L21.3411 10.4666L20.2867 11.5334ZM4.54144 17.3939C6.15405 20.007 9.06403 21.75 12.3827 21.75V20.25C9.60023 20.25 7.16584 18.7903 5.81794 16.6061L4.54144 17.3939Z" fill="#C8CED8"/>
</svg>