<svg width="24" height="24" viewBox="0 0 24 24" fill="none" xmlns="http://www.w3.org/2000/svg">
<path d="M9.5 10C11.1569 10 12.5 8.65688 12.5 7.00002C12.5 5.34317 11.1569 4.00002 9.5 4.00002C7.84315 4.00002 6.5 5.34317 6.5 7.00002C6.5 8.65688 7.84315 10 9.5 10Z" stroke="#373435" stroke-width="1.5"/>
<path d="M14.5 20C12.8431 20 11.5 18.6569 11.5 17C11.5 15.3432 12.8431 14 14.5 14C16.1569 14 17.5 15.3432 17.5 17C17.5 18.6569 16.1569 20 14.5 20Z" stroke="#373435" stroke-width="1.5"/>
<path d="M15 7.0415L22 7.0415" stroke="#373435" stroke-width="1.5" stroke-linecap="round"/>
<path d="M9 17.0415L2 17.0415" stroke="#373435" stroke-width="1.5" stroke-linecap="round"/>
<path d="M2 7.0415L4 7.0415" stroke="#373435" stroke-width="1.5" stroke-linecap="round"/>
<path d="M22 17.0415L20 17.0415" stroke="#373435" stroke-width="1.5" stroke-linecap="round"/>
</svg>
