<svg
	width="20"
	height="20"
	viewBox="0 0 20 20"
	fill="none"
	xmlns="http://www.w3.org/2000/svg"
>
	<path
		d="M5 6.66663H8.33333"
		stroke="#05A6BE"
		stroke-width="1.5"
		stroke-linecap="round"
		stroke-linejoin="round"
	/>
	<path
		d="M17.3611 7.5H15.1923C13.7054 7.5 12.5 8.61929 12.5 10C12.5 11.3807 13.7054 12.5 15.1923 12.5H17.3611C17.4306 12.5 17.4653 12.5 17.4946 12.4982C17.944 12.4709 18.302 12.1385 18.3314 11.7212C18.3333 11.6939 18.3333 11.6617 18.3333 11.5972V8.40278C18.3333 8.33829 18.3333 8.30605 18.3314 8.27883C18.302 7.86153 17.944 7.52914 17.4946 7.50178C17.4653 7.5 17.4306 7.5 17.3611 7.5Z"
		stroke="#05A6BE"
		stroke-width="1.5"
	/>
	<path
		d="M17.4709 7.50004C17.4061 5.93979 17.1972 4.98316 16.5237 4.30968C15.5474 3.33337 13.9761 3.33337 10.8334 3.33337L8.33335 3.33337C5.19066 3.33337 3.61931 3.33337 2.643 4.30969C1.66669 5.286 1.66669 6.85734 1.66669 10C1.66669 13.1427 1.66669 14.7141 2.643 15.6904C3.61931 16.6667 5.19066 16.6667 8.33335 16.6667H10.8334C13.9761 16.6667 15.5474 16.6667 16.5237 15.6904C17.1972 15.0169 17.4061 14.0603 17.4709 12.5"
		stroke="#05A6BE"
		stroke-width="1.5"
	/>
	<path
		d="M14.9927 10H15.0002"
		stroke="#05A6BE"
		stroke-width="2"
		stroke-linecap="round"
		stroke-linejoin="round"
	/>
</svg>
