<svg width="18" height="18" viewBox="0 0 18 18" fill="none" xmlns="http://www.w3.org/2000/svg">
<path d="M4.5 6H7.5" stroke="#373435" stroke-width="1.5" stroke-linecap="round" stroke-linejoin="round"/>
<path d="M15.625 6.75H13.6731C12.3348 6.75 11.25 7.75736 11.25 9C11.25 10.2426 12.3348 11.25 13.6731 11.25H15.625C15.6875 11.25 15.7187 11.25 15.7451 11.2484C16.1496 11.2238 16.4718 10.9246 16.4983 10.5491C16.5 10.5246 16.5 10.4955 16.5 10.4375V7.5625C16.5 7.50447 16.5 7.47545 16.4983 7.45095C16.4718 7.07538 16.1496 6.77622 15.7451 6.75161C15.7187 6.75 15.6875 6.75 15.625 6.75Z" stroke="#373435" stroke-width="1.5"/>
<path d="M16.0238 6.4502C15.9654 5.04597 15.7774 4.185 15.1713 3.57887C14.2926 2.7002 12.8784 2.7002 10.05 2.7002L7.79999 2.7002C4.97156 2.7002 3.55735 2.7002 2.67867 3.57888C1.79999 4.45755 1.79999 5.87177 1.79999 8.7002C1.79999 11.5286 1.79999 12.9428 2.67867 13.8215C3.55735 14.7002 4.97156 14.7002 7.79999 14.7002H10.05C12.8784 14.7002 14.2926 14.7002 15.1713 13.8215C15.7774 13.2154 15.9654 12.3544 16.0238 10.9502" stroke="#373435" stroke-width="1.5"/>
<path d="M13.95 9H13.956" stroke="#373435" stroke-width="2" stroke-linecap="round" stroke-linejoin="round"/>
</svg>
