<svg width="24" height="24" viewBox="0 0 24 24" fill="none" xmlns="http://www.w3.org/2000/svg">
<path d="M20 12.421C20 5.74751 15.7143 2.38016 15.5306 2.25771C14.9796 1.82914 14.2449 1.95159 13.8163 2.50261C13.6193 2.75663 13.5283 3.07712 13.5626 3.39678C13.5968 3.71644 13.7536 4.01039 14 4.2169C14.1224 4.33935 17.4898 7.03322 17.4898 12.421C17.4898 17.8087 14.1224 20.5026 14 20.6251C13.8509 20.7419 13.7296 20.8903 13.6449 21.0597C13.5602 21.2292 13.5142 21.4153 13.5102 21.6047C13.5102 21.8495 13.5714 22.1557 13.7551 22.3393C14.2449 22.8904 14.9796 23.0128 15.5306 22.5842C15.7143 22.4618 20 19.0944 20 12.421Z" fill="#373435" stroke="#373435" stroke-width="0.000533333"/>
<path d="M15.4082 12.4209C15.4082 8.5638 13.0204 6.17605 12.898 6.0536C12.6699 5.83005 12.3627 5.70556 12.0434 5.70717C11.724 5.70878 11.4181 5.83637 11.1923 6.06221C10.9664 6.28805 10.8389 6.59389 10.8372 6.91328C10.8356 7.23266 10.9601 7.53977 11.1837 7.76788C12.3104 9.0582 12.9399 10.7081 12.9592 12.4209C12.9399 14.1338 12.3104 15.7837 11.1837 17.074C11.0676 17.1846 10.9753 17.3176 10.9122 17.4649C10.8491 17.6122 10.8165 17.7709 10.8165 17.9311C10.8165 18.0914 10.8491 18.25 10.9122 18.3974C10.9753 18.5447 11.0676 18.6777 11.1837 18.7883C11.2943 18.9043 11.4272 18.9967 11.5746 19.0598C11.7219 19.1229 11.8805 19.1555 12.0408 19.1555C12.2011 19.1555 12.3597 19.1229 12.5071 19.0598C12.6544 18.9967 12.7874 18.9043 12.898 18.7883C13.0204 18.6658 15.4082 16.2781 15.4082 12.4209Z" fill="#373435" stroke="#373435" stroke-width="0.000533333"/>
<path d="M7.44898 12.421C7.44898 12.0962 7.31997 11.7848 7.09034 11.5551C6.8607 11.3255 6.54925 11.1965 6.22449 11.1965C5.98231 11.1965 5.74557 11.2683 5.5442 11.4028C5.34284 11.5374 5.18589 11.7286 5.09321 11.9524C5.00053 12.1761 4.97628 12.4223 5.02353 12.6598C5.07078 12.8974 5.1874 13.1156 5.35865 13.2868C5.52989 13.4581 5.74808 13.5747 5.98561 13.6219C6.22313 13.6692 6.46934 13.6449 6.69308 13.5522C6.91683 13.4596 7.10807 13.3026 7.24262 13.1013C7.37717 12.8999 7.44898 12.6631 7.44898 12.421Z" fill="#373435" stroke="#373435" stroke-width="0.000533333"/>
<path d="M9.83674 15.6659C10.0204 15.5434 11.1225 14.2577 11.1225 12.421C11.1225 10.6455 10.0204 9.29854 9.89796 9.17609C9.683 8.9388 9.38476 8.79361 9.06539 8.7708C8.74603 8.74799 8.43018 8.84931 8.18368 9.05364C7.69388 9.48221 7.57143 10.2781 8 10.7679C8 10.7679 8.61225 11.5638 8.61225 12.421C8.61225 13.3394 8 14.074 8 14.074C7.82001 14.3024 7.7133 14.5799 7.69388 14.87C7.69281 15.0452 7.73071 15.2185 7.80483 15.3774C7.87895 15.5362 7.98744 15.6766 8.12245 15.7883C8.61225 16.2169 9.40817 16.2169 9.83674 15.6659Z" fill="#373435" stroke="#373435" stroke-width="0.000533333"/>
</svg>
