<svg width="24" height="24" viewBox="0 0 24 24" fill="none" xmlns="http://www.w3.org/2000/svg">
<path d="M1.75024 10.0004V14.0004C1.75024 16.8288 1.75024 18.2431 2.62892 19.1217C2.84626 19.3391 3.09636 19.5026 3.39252 19.6258C3.38581 19.5813 3.37946 19.5367 3.37346 19.492C3.2501 18.5746 3.25017 17.4288 3.25024 16.0991L3.25024 8.00036L3.25024 7.90161V7.90161C3.25017 6.57188 3.2501 5.42616 3.37346 4.50867C3.37945 4.46405 3.3858 4.41951 3.39251 4.37506C3.09635 4.49818 2.84626 4.66176 2.62892 4.87909C1.75024 5.75777 1.75024 7.17198 1.75024 10.0004Z" fill="#16B8AF"/>
<path d="M21.7502 10.0004V14.0004C21.7502 16.8288 21.7502 18.2431 20.8716 19.1217C20.6542 19.3391 20.4041 19.5026 20.108 19.6258C20.1147 19.5813 20.121 19.5367 20.127 19.492C20.2504 18.5746 20.2503 17.4288 20.2502 16.0991V7.90162C20.2503 6.57189 20.2504 5.42616 20.127 4.50867C20.121 4.46405 20.1147 4.41951 20.108 4.37506C20.4041 4.49818 20.6542 4.66176 20.8716 4.87909C21.7502 5.75777 21.7502 7.17198 21.7502 10.0004Z" fill="#16B8AF"/>
<path fill-rule="evenodd" clip-rule="evenodd" d="M5.62892 2.87874C4.75024 3.75742 4.75024 5.17163 4.75024 8.00006V16.0001C4.75024 18.8285 4.75024 20.2427 5.62892 21.1214C6.5076 22.0001 7.92182 22.0001 10.7502 22.0001H12.7502C15.5787 22.0001 16.9929 22.0001 17.8716 21.1214C18.7502 20.2427 18.7502 18.8285 18.7502 16.0001V8.00006C18.7502 5.17163 18.7502 3.75742 17.8716 2.87874C16.9929 2.00006 15.5787 2.00006 12.7502 2.00006H10.7502C7.92182 2.00006 6.5076 2.00006 5.62892 2.87874ZM8.00024 17.0001C8.00024 16.5858 8.33603 16.2501 8.75024 16.2501H11.7502C12.1645 16.2501 12.5002 16.5858 12.5002 17.0001C12.5002 17.4143 12.1645 17.7501 11.7502 17.7501H8.75024C8.33603 17.7501 8.00024 17.4143 8.00024 17.0001ZM8.75024 12.2501C8.33603 12.2501 8.00024 12.5858 8.00024 13.0001C8.00024 13.4143 8.33603 13.7501 8.75024 13.7501H14.7502C15.1645 13.7501 15.5002 13.4143 15.5002 13.0001C15.5002 12.5858 15.1645 12.2501 14.7502 12.2501H8.75024ZM8.00024 9.00006C8.00024 8.58585 8.33603 8.25006 8.75024 8.25006H14.7502C15.1645 8.25006 15.5002 8.58585 15.5002 9.00006C15.5002 9.41427 15.1645 9.75006 14.7502 9.75006H8.75024C8.33603 9.75006 8.00024 9.41427 8.00024 9.00006Z" fill="#16B8AF"/>
</svg>
