<svg width="24" height="24" viewBox="0 0 24 24" fill="none" xmlns="http://www.w3.org/2000/svg">
<path fill-rule="evenodd" clip-rule="evenodd" d="M21.1011 8.00353C21.0445 7.99996 20.9828 7.99998 20.9188 8L20.9028 8.00001H18.3944C16.3267 8.00001 14.5575 9.62757 14.5575 11.75C14.5575 13.8724 16.3267 15.5 18.3944 15.5H20.9028L20.9188 15.5C20.9828 15.5 21.0445 15.5001 21.1011 15.4965C21.941 15.4434 22.6838 14.7862 22.7462 13.8682C22.7503 13.808 22.7503 13.7431 22.7502 13.683L22.7502 13.6667V9.83334L22.7502 9.81702C22.7503 9.75688 22.7503 9.69199 22.7462 9.6318C22.6838 8.71381 21.941 8.05657 21.1011 8.00353ZM18.1719 12.75C18.7042 12.75 19.1358 12.3023 19.1358 11.75C19.1358 11.1977 18.7042 10.75 18.1719 10.75C17.6396 10.75 17.2081 11.1977 17.2081 11.75C17.2081 12.3023 17.6396 12.75 18.1719 12.75Z" fill="#16B8AF"/>
<path fill-rule="evenodd" clip-rule="evenodd" d="M20.9182 17C21.0673 16.9961 21.1801 17.1342 21.1397 17.2778C20.9389 17.9902 20.6203 18.5975 20.109 19.1088C19.3606 19.8571 18.4117 20.1892 17.2393 20.3469C16.1001 20.5 14.6444 20.5 12.8067 20.5H10.6938C8.85607 20.5 7.40044 20.5 6.26122 20.3469C5.0888 20.1892 4.13985 19.8571 3.39149 19.1088C2.64312 18.3604 2.31101 17.4114 2.15338 16.239C2.00022 15.0998 2.00023 13.6442 2.00024 11.8064V11.6936C2.00023 9.85583 2.00022 8.40019 2.15338 7.26098C2.31101 6.08856 2.64312 5.13961 3.39149 4.39124C4.13985 3.64288 5.0888 3.31076 6.26122 3.15314C7.40044 2.99997 8.85607 2.99998 10.6938 3L12.8067 3C14.6444 2.99998 16.1001 2.99997 17.2393 3.15314C18.4117 3.31076 19.3606 3.64288 20.109 4.39124C20.6203 4.90252 20.9389 5.50974 21.1396 6.22218C21.1801 6.36575 21.0672 6.50387 20.9181 6.5L18.3943 6.50001C15.5576 6.50001 13.0574 8.74091 13.0574 11.75C13.0574 14.7591 15.5576 17 18.3943 17L20.9182 17ZM5.75024 7C5.33603 7 5.00024 7.33579 5.00024 7.75C5.00024 8.16421 5.33603 8.5 5.75024 8.5H9.75024C10.1645 8.5 10.5002 8.16421 10.5002 7.75C10.5002 7.33579 10.1645 7 9.75024 7H5.75024Z" fill="#16B8AF"/>
</svg>
