<svg width="24" height="24" viewBox="0 0 24 24" fill="none" xmlns="http://www.w3.org/2000/svg">
<path d="M6 19C4.34314 19 3 17.6569 3 16V10C3 6.22877 3 4.34316 4.17157 3.17157C5.34315 2 7.22876 2 11 2H15C16.6569 2 18 3.34315 18 5.00001" fill="#16B8AF"/>
<path d="M5 10.3529C5 7.35813 5 5.86074 5.93724 4.93035C6.87452 4 8.383 4 11.4 4H14.6C17.617 4 19.1255 4 20.0628 4.93035C21 5.86074 21 7.35813 21 10.3529V15.6471C21 18.6419 21 20.1393 20.0628 21.0697C19.1255 22 17.617 22 14.6 22H11.4C8.383 22 6.87452 22 5.93724 21.0697C5 20.1393 5 18.6419 5 15.6471V10.3529Z" fill="white"/>
<path d="M6 11C6 8.17156 6 6.75736 6.87866 5.87866C7.75736 5 9.17156 5 12 5H15C17.8284 5 19.2426 5 20.1213 5.87866C21 6.75736 21 8.17156 21 11V16C21 18.8284 21 20.2426 20.1213 21.1213C19.2426 22 17.8284 22 15 22H12C9.17156 22 7.75736 22 6.87866 21.1213C6 20.2426 6 18.8284 6 16V11Z" fill="#16B8AF"/>
</svg>
