<svg width="24" height="24" viewBox="0 0 24 24" fill="none" xmlns="http://www.w3.org/2000/svg">
<path fill-rule="evenodd" clip-rule="evenodd" d="M9.99988 2.00006H8.99988C6.17145 2.00006 4.75724 2.00006 3.87856 2.87874C2.99988 3.75742 2.99988 5.17163 2.99988 8.00006V21.2501H1.99988C1.58566 21.2501 1.24988 21.5858 1.24988 22.0001C1.24988 22.4143 1.58566 22.7501 1.99988 22.7501H17.2499C17.6641 22.7501 17.9999 22.4143 17.9999 22.0001C17.9999 21.5858 17.6641 21.2501 17.2499 21.2501H15.9999V17.7501H17.5713C17.9461 17.7501 18.2499 18.0539 18.2499 18.4287V18.5001C18.2499 19.7427 19.2572 20.7501 20.4999 20.7501C21.7425 20.7501 22.7499 19.7427 22.7499 18.5001V7.60183C22.7499 7.44517 22.7499 7.33708 22.744 7.23167C22.6883 6.24069 22.2421 5.3122 21.503 4.64968C21.4244 4.57921 21.34 4.5117 21.2177 4.41384L19.9684 3.41444C19.645 3.15568 19.173 3.20812 18.9142 3.53157C18.6555 3.85501 18.7079 4.32698 19.0314 4.58574L20.2644 5.57221C20.4089 5.6878 20.4584 5.72774 20.5018 5.76659C20.9452 6.16411 21.2129 6.7212 21.2463 7.31579C21.2496 7.3739 21.2499 7.43749 21.2499 7.62253V8.00006H20.4999C19.6715 8.00006 18.9999 8.67163 18.9999 9.50006V11.9189C18.9999 12.5646 19.413 13.1378 20.0255 13.3419L21.2499 13.7501V18.5001C21.2499 18.9143 20.9141 19.2501 20.4999 19.2501C20.0857 19.2501 19.7499 18.9143 19.7499 18.5001V18.4287C19.7499 17.2255 18.7745 16.2501 17.5713 16.2501H15.9999V8.00006C15.9999 5.17163 15.9999 3.75742 15.1212 2.87874C14.2425 2.00006 12.8283 2.00006 9.99988 2.00006ZM9.88575 9.35694C10.2409 9.57005 10.3561 10.0307 10.143 10.3859L9.32452 11.7501H10.9999C11.2701 11.7501 11.5194 11.8954 11.6525 12.1305C11.7857 12.3657 11.782 12.6542 11.643 12.8859L10.143 15.3859C9.92989 15.7411 9.46919 15.8563 9.11401 15.6432C8.75882 15.4301 8.64365 14.9694 8.85676 14.6142L9.67524 13.2501H7.99988C7.72967 13.2501 7.48036 13.1047 7.34723 12.8696C7.2141 12.6345 7.21774 12.3459 7.35676 12.1142L8.85676 9.61419C9.06987 9.259 9.53056 9.14383 9.88575 9.35694Z" fill="#16B8AF"/>
</svg>
