<svg width="24" height="24" viewBox="0 0 24 24" fill="none" xmlns="http://www.w3.org/2000/svg">
<circle cx="9.00073" cy="6" r="4" fill="#16B8AF"/>
<ellipse cx="9.00073" cy="17.001" rx="7" ry="4" fill="#16B8AF"/>
<path d="M20.9994 17.0005C20.9994 18.6573 18.9638 20.0004 16.4786 20.0004C17.2108 19.2001 17.7142 18.1955 17.7142 17.0018C17.7142 15.8068 17.2096 14.8013 16.476 14.0005C18.9613 14.0005 20.9994 15.3436 20.9994 17.0005Z" fill="#16B8AF"/>
<path d="M17.9994 6.00073C17.9994 7.65759 16.6562 9.00073 14.9994 9.00073C14.6381 9.00073 14.2917 8.93687 13.9709 8.81981C14.444 7.98772 14.7142 7.02522 14.7142 5.99962C14.7142 4.97477 14.4444 4.01294 13.972 3.18127C14.2925 3.06446 14.6385 3.00073 14.9994 3.00073C16.6562 3.00073 17.9994 4.34388 17.9994 6.00073Z" fill="#16B8AF"/>
</svg>
